# MagicaVoxel @ Ephtracy

# group
o 

# material
mtllib Wooden Pickaxe.mtl
usemtl palette

# normals
vn -1 0 0
vn 1 0 0
vn 0 0 1
vn 0 0 -1
vn 0 -1 0
vn 0 1 0

# texcoords
vt 0.962891 0.5
vt 0.966797 0.5
vt 0.970703 0.5
vt 0.974609 0.5
vt 0.978516 0.5
vt 0.982422 0.5
vt 0.986328 0.5
vt 0.990234 0.5
vt 0.994141 0.5

# verts
v -0.4 0.1 0.3
v -0.4 0.1 0.2
v -0.4 0.2 0.3
v -0.4 0.2 0.2
v -0.4 0.3 0.3
v -0.4 0.3 0.2
v -0.3 0.3 0.3
v -0.3 0.3 0.2
v -0.3 0.4 0.3
v -0.3 0.4 0.2
v -0.2 0.4 0.3
v -0.2 0.4 0.2
v -0.2 0.5 0.3
v -0.2 0.5 0.2
v -0.1 0.5 0.3
v -0.1 0.5 0.2
v -0.1 0.6 0.3
v -0.1 0.6 0.2
v -0.1 1.2 0.3
v -0.1 1.2 0.2
v -0.1 1.3 0.3
v -0.1 1.3 0.2
v 0 0.6 0.3
v 0 0.6 0.2
v 0 0.7 0.3
v 0 0.7 0.2
v 0 1.1 0.3
v 0 1.1 0.2
v 0 1.2 0.3
v 0 1.2 0.2
v 0 1.3 0.3
v 0 1.3 0.2
v 0 1.4 0.3
v 0 1.4 0.2
v 0.1 0.7 0.3
v 0.1 0.7 0.2
v 0.1 0.8 0.3
v 0.1 0.8 0.2
v 0.2 0.8 0.3
v 0.2 0.8 0.2
v 0.2 0.9 0.3
v 0.2 0.9 0.2
v 0.3 0.9 0.3
v 0.3 0.9 0.2
v 0.3 1 0.3
v 0.3 1 0.2
v 0.4 1 0.3
v 0.4 1 0.2
v 0.4 1.1 0.3
v 0.4 1.1 0.2
v 0.6 0.5 0.3
v 0.6 0.5 0.2
v 0.6 0.9 0.3
v 0.6 0.9 0.2
v 0.7 0.4 0.3
v 0.7 0.4 0.2
v 0.7 0.5 0.3
v 0.7 0.5 0.2
v -0.2 0.1 0.3
v -0.2 0.1 0.2
v -0.2 0.2 0.3
v -0.2 0.2 0.2
v -0.1 0.2 0.3
v -0.1 0.2 0.2
v -0.1 0.3 0.3
v -0.1 0.3 0.2
v 0 0.3 0.3
v 0 0.3 0.2
v 0 0.4 0.3
v 0 0.4 0.2
v 0.1 0.4 0.3
v 0.1 0.4 0.2
v 0.1 0.5 0.3
v 0.1 0.5 0.2
v 0.2 0.5 0.3
v 0.2 0.5 0.2
v 0.2 0.6 0.3
v 0.2 0.6 0.2
v 0.3 0.6 0.3
v 0.3 0.6 0.2
v 0.3 0.7 0.3
v 0.3 0.7 0.2
v 0.4 0.7 0.3
v 0.4 0.7 0.2
v 0.4 0.8 0.3
v 0.4 0.8 0.2
v 0.5 0.8 0.3
v 0.5 0.8 0.2
v 0.5 0.9 0.3
v 0.5 0.9 0.2
v 0.5 1.3 0.3
v 0.5 1.3 0.2
v 0.5 1.4 0.3
v 0.5 1.4 0.2
v 0.8 0.4 0.3
v 0.8 0.4 0.2
v 0.8 0.5 0.3
v 0.8 0.5 0.2
v 0.8 1 0.3
v 0.8 1 0.2
v 0.8 1.1 0.3
v 0.8 1.1 0.2
v 0.8 1.2 0.3
v 0.8 1.2 0.2
v 0.8 1.3 0.3
v 0.8 1.3 0.2
v 0.9 0.5 0.3
v 0.9 0.5 0.2
v 0.9 1 0.3
v 0.9 1 0.2
v -0.4 0.1 0.3
v -0.4 0.2 0.3
v -0.4 0.3 0.3
v -0.3 0.2 0.3
v -0.3 0.3 0.3
v -0.3 0.4 0.3
v -0.2 0.1 0.3
v -0.2 0.2 0.3
v -0.2 0.3 0.3
v -0.2 0.4 0.3
v -0.2 0.5 0.3
v -0.1 0.2 0.3
v -0.1 0.3 0.3
v -0.1 0.4 0.3
v -0.1 0.5 0.3
v -0.1 0.6 0.3
v -0.1 1.2 0.3
v -0.1 1.3 0.3
v 0 0.3 0.3
v 0 0.4 0.3
v 0 0.5 0.3
v 0 0.6 0.3
v 0 0.7 0.3
v 0 1.1 0.3
v 0 1.2 0.3
v 0 1.3 0.3
v 0 1.4 0.3
v 0.1 0.4 0.3
v 0.1 0.5 0.3
v 0.1 0.6 0.3
v 0.1 0.7 0.3
v 0.1 0.8 0.3
v 0.1 1.1 0.3
v 0.1 1.2 0.3
v 0.1 1.3 0.3
v 0.2 0.5 0.3
v 0.2 0.6 0.3
v 0.2 0.7 0.3
v 0.2 0.8 0.3
v 0.2 0.9 0.3
v 0.2 1.2 0.3
v 0.2 1.3 0.3
v 0.3 0.6 0.3
v 0.3 0.7 0.3
v 0.3 0.8 0.3
v 0.3 0.9 0.3
v 0.3 1 0.3
v 0.4 0.7 0.3
v 0.4 0.8 0.3
v 0.4 0.9 0.3
v 0.4 1 0.3
v 0.4 1.1 0.3
v 0.4 1.2 0.3
v 0.4 1.3 0.3
v 0.5 0.8 0.3
v 0.5 0.9 0.3
v 0.5 1 0.3
v 0.5 1.1 0.3
v 0.5 1.2 0.3
v 0.5 1.3 0.3
v 0.5 1.4 0.3
v 0.6 0.5 0.3
v 0.6 0.9 0.3
v 0.6 1 0.3
v 0.6 1.1 0.3
v 0.6 1.2 0.3
v 0.6 1.3 0.3
v 0.7 0.4 0.3
v 0.7 0.5 0.3
v 0.7 0.6 0.3
v 0.7 0.7 0.3
v 0.7 0.9 0.3
v 0.7 1 0.3
v 0.7 1.1 0.3
v 0.7 1.2 0.3
v 0.7 1.3 0.3
v 0.8 0.4 0.3
v 0.8 0.5 0.3
v 0.8 0.6 0.3
v 0.8 0.7 0.3
v 0.8 0.9 0.3
v 0.8 1 0.3
v 0.8 1.1 0.3
v 0.8 1.2 0.3
v 0.8 1.3 0.3
v 0.9 0.5 0.3
v 0.9 1 0.3
v -0.4 0.1 0.2
v -0.4 0.2 0.2
v -0.4 0.3 0.2
v -0.3 0.2 0.2
v -0.3 0.3 0.2
v -0.3 0.4 0.2
v -0.2 0.1 0.2
v -0.2 0.2 0.2
v -0.2 0.3 0.2
v -0.2 0.4 0.2
v -0.2 0.5 0.2
v -0.1 0.2 0.2
v -0.1 0.3 0.2
v -0.1 0.4 0.2
v -0.1 0.5 0.2
v -0.1 0.6 0.2
v -0.1 1.2 0.2
v -0.1 1.3 0.2
v 0 0.3 0.2
v 0 0.4 0.2
v 0 0.5 0.2
v 0 0.6 0.2
v 0 0.7 0.2
v 0 1.1 0.2
v 0 1.2 0.2
v 0 1.3 0.2
v 0 1.4 0.2
v 0.1 0.4 0.2
v 0.1 0.5 0.2
v 0.1 0.6 0.2
v 0.1 0.7 0.2
v 0.1 0.8 0.2
v 0.1 1.1 0.2
v 0.1 1.2 0.2
v 0.1 1.3 0.2
v 0.2 0.5 0.2
v 0.2 0.6 0.2
v 0.2 0.7 0.2
v 0.2 0.8 0.2
v 0.2 0.9 0.2
v 0.2 1.2 0.2
v 0.2 1.3 0.2
v 0.3 0.6 0.2
v 0.3 0.7 0.2
v 0.3 0.8 0.2
v 0.3 0.9 0.2
v 0.3 1 0.2
v 0.4 0.7 0.2
v 0.4 0.8 0.2
v 0.4 0.9 0.2
v 0.4 1 0.2
v 0.4 1.1 0.2
v 0.4 1.2 0.2
v 0.4 1.3 0.2
v 0.5 0.8 0.2
v 0.5 0.9 0.2
v 0.5 1 0.2
v 0.5 1.1 0.2
v 0.5 1.2 0.2
v 0.5 1.3 0.2
v 0.5 1.4 0.2
v 0.6 0.5 0.2
v 0.6 0.9 0.2
v 0.6 1 0.2
v 0.6 1.1 0.2
v 0.6 1.2 0.2
v 0.6 1.3 0.2
v 0.7 0.4 0.2
v 0.7 0.5 0.2
v 0.7 0.6 0.2
v 0.7 0.7 0.2
v 0.7 0.9 0.2
v 0.7 1 0.2
v 0.7 1.1 0.2
v 0.7 1.2 0.2
v 0.7 1.3 0.2
v 0.8 0.4 0.2
v 0.8 0.5 0.2
v 0.8 0.6 0.2
v 0.8 0.7 0.2
v 0.8 0.9 0.2
v 0.8 1 0.2
v 0.8 1.1 0.2
v 0.8 1.2 0.2
v 0.8 1.3 0.2
v 0.9 0.5 0.2
v 0.9 1 0.2
v -0.4 0.1 0.3
v -0.2 0.1 0.3
v -0.4 0.1 0.2
v -0.2 0.1 0.2
v -0.2 0.2 0.3
v -0.1 0.2 0.3
v -0.2 0.2 0.2
v -0.1 0.2 0.2
v -0.1 0.3 0.3
v 0 0.3 0.3
v -0.1 0.3 0.2
v 0 0.3 0.2
v 0 0.4 0.3
v 0.1 0.4 0.3
v 0.7 0.4 0.3
v 0.8 0.4 0.3
v 0 0.4 0.2
v 0.1 0.4 0.2
v 0.7 0.4 0.2
v 0.8 0.4 0.2
v 0.1 0.5 0.3
v 0.2 0.5 0.3
v 0.6 0.5 0.3
v 0.7 0.5 0.3
v 0.8 0.5 0.3
v 0.9 0.5 0.3
v 0.1 0.5 0.2
v 0.2 0.5 0.2
v 0.6 0.5 0.2
v 0.7 0.5 0.2
v 0.8 0.5 0.2
v 0.9 0.5 0.2
v 0.2 0.6 0.3
v 0.3 0.6 0.3
v 0.2 0.6 0.2
v 0.3 0.6 0.2
v 0.3 0.7 0.3
v 0.4 0.7 0.3
v 0.3 0.7 0.2
v 0.4 0.7 0.2
v 0.4 0.8 0.3
v 0.5 0.8 0.3
v 0.4 0.8 0.2
v 0.5 0.8 0.2
v 0.5 0.9 0.3
v 0.6 0.9 0.3
v 0.5 0.9 0.2
v 0.6 0.9 0.2
v 0 1.1 0.3
v 0.1 1.1 0.3
v 0.4 1.1 0.3
v 0 1.1 0.2
v 0.1 1.1 0.2
v 0.4 1.1 0.2
v -0.1 1.2 0.3
v 0 1.2 0.3
v -0.1 1.2 0.2
v 0 1.2 0.2
v -0.4 0.3 0.3
v -0.3 0.3 0.3
v -0.4 0.3 0.2
v -0.3 0.3 0.2
v -0.3 0.4 0.3
v -0.2 0.4 0.3
v -0.3 0.4 0.2
v -0.2 0.4 0.2
v -0.2 0.5 0.3
v -0.1 0.5 0.3
v -0.2 0.5 0.2
v -0.1 0.5 0.2
v -0.1 0.6 0.3
v 0 0.6 0.3
v -0.1 0.6 0.2
v 0 0.6 0.2
v 0 0.7 0.3
v 0.1 0.7 0.3
v 0 0.7 0.2
v 0.1 0.7 0.2
v 0.1 0.8 0.3
v 0.2 0.8 0.3
v 0.1 0.8 0.2
v 0.2 0.8 0.2
v 0.2 0.9 0.3
v 0.3 0.9 0.3
v 0.2 0.9 0.2
v 0.3 0.9 0.2
v 0.3 1 0.3
v 0.4 1 0.3
v 0.8 1 0.3
v 0.9 1 0.3
v 0.3 1 0.2
v 0.4 1 0.2
v 0.8 1 0.2
v 0.9 1 0.2
v -0.1 1.3 0.3
v 0 1.3 0.3
v 0.5 1.3 0.3
v 0.6 1.3 0.3
v 0.7 1.3 0.3
v 0.8 1.3 0.3
v -0.1 1.3 0.2
v 0 1.3 0.2
v 0.5 1.3 0.2
v 0.6 1.3 0.2
v 0.7 1.3 0.2
v 0.8 1.3 0.2
v 0 1.4 0.3
v 0.5 1.4 0.3
v 0 1.4 0.2
v 0.5 1.4 0.2

# faces
f 3/4/1 2/4/1 1/4/1
f 4/4/1 2/4/1 3/4/1
f 5/5/1 4/5/1 3/5/1
f 6/5/1 4/5/1 5/5/1
f 9/5/1 8/5/1 7/5/1
f 10/5/1 8/5/1 9/5/1
f 13/5/1 12/5/1 11/5/1
f 14/5/1 12/5/1 13/5/1
f 17/5/1 16/5/1 15/5/1
f 18/5/1 16/5/1 17/5/1
f 21/9/1 20/9/1 19/9/1
f 22/9/1 20/9/1 21/9/1
f 25/5/1 24/5/1 23/5/1
f 26/5/1 24/5/1 25/5/1
f 29/9/1 28/9/1 27/9/1
f 30/9/1 28/9/1 29/9/1
f 33/9/1 32/9/1 31/9/1
f 34/9/1 32/9/1 33/9/1
f 37/5/1 36/5/1 35/5/1
f 38/5/1 36/5/1 37/5/1
f 41/5/1 40/5/1 39/5/1
f 42/5/1 40/5/1 41/5/1
f 45/5/1 44/5/1 43/5/1
f 46/5/1 44/5/1 45/5/1
f 49/5/1 48/5/1 47/5/1
f 50/5/1 48/5/1 49/5/1
f 53/2/1 52/2/1 51/2/1
f 54/2/1 52/2/1 53/2/1
f 57/2/1 56/2/1 55/2/1
f 58/2/1 56/2/1 57/2/1
f 59/4/2 60/4/2 61/4/2
f 61/4/2 60/4/2 62/4/2
f 63/4/2 64/4/2 65/4/2
f 65/4/2 64/4/2 66/4/2
f 67/4/2 68/4/2 69/4/2
f 69/4/2 68/4/2 70/4/2
f 71/4/2 72/4/2 73/4/2
f 73/4/2 72/4/2 74/4/2
f 75/4/2 76/4/2 77/4/2
f 77/4/2 76/4/2 78/4/2
f 79/4/2 80/4/2 81/4/2
f 81/4/2 80/4/2 82/4/2
f 83/4/2 84/4/2 85/4/2
f 85/4/2 84/4/2 86/4/2
f 87/4/2 88/4/2 89/4/2
f 89/4/2 88/4/2 90/4/2
f 91/9/2 92/9/2 93/9/2
f 93/9/2 92/9/2 94/9/2
f 95/2/2 96/2/2 97/2/2
f 97/2/2 96/2/2 98/2/2
f 99/2/2 100/2/2 101/2/2
f 101/2/2 100/2/2 102/2/2
f 101/4/2 102/4/2 103/4/2
f 103/4/2 102/4/2 104/4/2
f 103/6/2 104/6/2 105/6/2
f 105/6/2 104/6/2 106/6/2
f 107/2/2 108/2/2 109/2/2
f 109/2/2 108/2/2 110/2/2
f 114/4/3 112/4/3 111/4/3
f 114/5/3 113/5/3 112/5/3
f 115/5/3 113/5/3 114/5/3
f 117/4/3 114/4/3 111/4/3
f 118/3/3 115/3/3 114/3/3
f 118/4/3 114/4/3 117/4/3
f 119/5/3 116/5/3 115/5/3
f 119/3/3 115/3/3 118/3/3
f 120/5/3 116/5/3 119/5/3
f 122/4/3 119/4/3 118/4/3
f 123/6/3 120/6/3 119/6/3
f 123/4/3 119/4/3 122/4/3
f 124/5/3 121/5/3 120/5/3
f 124/6/3 120/6/3 123/6/3
f 125/5/3 121/5/3 124/5/3
f 129/4/3 124/4/3 123/4/3
f 130/3/3 125/3/3 124/3/3
f 130/4/3 124/4/3 129/4/3
f 131/5/3 126/5/3 125/5/3
f 131/3/3 125/3/3 130/3/3
f 132/5/3 126/5/3 131/5/3
f 135/9/3 128/9/3 127/9/3
f 136/9/3 128/9/3 135/9/3
f 138/4/3 131/4/3 130/4/3
f 139/6/3 132/6/3 131/6/3
f 139/4/3 131/4/3 138/4/3
f 140/5/3 133/5/3 132/5/3
f 140/6/3 132/6/3 139/6/3
f 141/5/3 133/5/3 140/5/3
f 143/9/3 135/9/3 134/9/3
f 144/7/3 136/7/3 135/7/3
f 144/9/3 135/9/3 143/9/3
f 145/9/3 137/9/3 136/9/3
f 145/7/3 136/7/3 144/7/3
f 146/4/3 140/4/3 139/4/3
f 147/3/3 141/3/3 140/3/3
f 147/4/3 140/4/3 146/4/3
f 148/5/3 142/5/3 141/5/3
f 148/3/3 141/3/3 147/3/3
f 149/5/3 142/5/3 148/5/3
f 151/2/3 144/2/3 143/2/3
f 151/1/3 145/1/3 144/1/3
f 152/9/3 137/9/3 145/9/3
f 152/1/3 145/1/3 151/1/3
f 153/4/3 148/4/3 147/4/3
f 154/6/3 149/6/3 148/6/3
f 154/4/3 148/4/3 153/4/3
f 155/5/3 150/5/3 149/5/3
f 155/6/3 149/6/3 154/6/3
f 156/5/3 150/5/3 155/5/3
f 158/4/3 155/4/3 154/4/3
f 159/3/3 156/3/3 155/3/3
f 159/4/3 155/4/3 158/4/3
f 160/5/3 157/5/3 156/5/3
f 160/3/3 156/3/3 159/3/3
f 161/5/3 157/5/3 160/5/3
f 162/2/3 151/2/3 143/2/3
f 163/8/3 152/8/3 151/8/3
f 163/2/3 151/2/3 162/2/3
f 164/9/3 137/9/3 152/9/3
f 164/8/3 152/8/3 163/8/3
f 165/4/3 160/4/3 159/4/3
f 166/1/3 161/1/3 160/1/3
f 166/4/3 160/4/3 165/4/3
f 167/5/3 162/5/3 161/5/3
f 167/1/3 161/1/3 166/1/3
f 168/8/3 163/8/3 162/8/3
f 168/5/3 162/5/3 167/5/3
f 169/1/3 164/1/3 163/1/3
f 169/8/3 163/8/3 168/8/3
f 170/9/3 137/9/3 164/9/3
f 170/1/3 164/1/3 169/1/3
f 171/9/3 137/9/3 170/9/3
f 173/4/3 167/4/3 166/4/3
f 174/1/3 168/1/3 167/1/3
f 174/4/3 167/4/3 173/4/3
f 175/8/3 169/8/3 168/8/3
f 175/1/3 168/1/3 174/1/3
f 176/9/3 170/9/3 169/9/3
f 176/8/3 169/8/3 175/8/3
f 177/9/3 170/9/3 176/9/3
f 179/2/3 173/2/3 172/2/3
f 180/2/3 173/2/3 179/2/3
f 181/2/3 173/2/3 180/2/3
f 182/8/3 174/8/3 173/8/3
f 182/2/3 173/2/3 181/2/3
f 182/8/3 175/8/3 174/8/3
f 183/8/3 175/8/3 182/8/3
f 184/3/3 176/3/3 175/3/3
f 184/8/3 175/8/3 183/8/3
f 185/5/3 177/5/3 176/5/3
f 185/3/3 176/3/3 184/3/3
f 186/5/3 177/5/3 185/5/3
f 187/2/3 179/2/3 178/2/3
f 188/7/3 180/7/3 179/7/3
f 188/2/3 179/2/3 187/2/3
f 189/1/3 181/1/3 180/1/3
f 189/7/3 180/7/3 188/7/3
f 190/8/3 182/8/3 181/8/3
f 190/1/3 181/1/3 189/1/3
f 191/1/3 183/1/3 182/1/3
f 191/8/3 182/8/3 190/8/3
f 192/2/3 184/2/3 183/2/3
f 192/1/3 183/1/3 191/1/3
f 193/4/3 185/4/3 184/4/3
f 193/2/3 184/2/3 192/2/3
f 194/6/3 186/6/3 185/6/3
f 194/4/3 185/4/3 193/4/3
f 195/6/3 186/6/3 194/6/3
f 196/2/3 190/2/3 189/2/3
f 196/2/3 192/2/3 191/2/3
f 196/2/3 189/2/3 188/2/3
f 196/2/3 191/2/3 190/2/3
f 197/2/3 192/2/3 196/2/3
f 198/4/4 199/4/4 201/4/4
f 199/5/4 200/5/4 201/5/4
f 201/5/4 200/5/4 202/5/4
f 198/4/4 201/4/4 204/4/4
f 201/3/4 202/3/4 205/3/4
f 204/4/4 201/4/4 205/4/4
f 202/5/4 203/5/4 206/5/4
f 205/3/4 202/3/4 206/3/4
f 206/5/4 203/5/4 207/5/4
f 205/4/4 206/4/4 209/4/4
f 206/6/4 207/6/4 210/6/4
f 209/4/4 206/4/4 210/4/4
f 207/5/4 208/5/4 211/5/4
f 210/6/4 207/6/4 211/6/4
f 211/5/4 208/5/4 212/5/4
f 210/4/4 211/4/4 216/4/4
f 211/3/4 212/3/4 217/3/4
f 216/4/4 211/4/4 217/4/4
f 212/5/4 213/5/4 218/5/4
f 217/3/4 212/3/4 218/3/4
f 218/5/4 213/5/4 219/5/4
f 214/9/4 215/9/4 222/9/4
f 222/9/4 215/9/4 223/9/4
f 217/4/4 218/4/4 225/4/4
f 218/6/4 219/6/4 226/6/4
f 225/4/4 218/4/4 226/4/4
f 219/5/4 220/5/4 227/5/4
f 226/6/4 219/6/4 227/6/4
f 227/5/4 220/5/4 228/5/4
f 221/9/4 222/9/4 230/9/4
f 222/7/4 223/7/4 231/7/4
f 230/9/4 222/9/4 231/9/4
f 223/9/4 224/9/4 232/9/4
f 231/7/4 223/7/4 232/7/4
f 226/4/4 227/4/4 233/4/4
f 227/3/4 228/3/4 234/3/4
f 233/4/4 227/4/4 234/4/4
f 228/5/4 229/5/4 235/5/4
f 234/3/4 228/3/4 235/3/4
f 235/5/4 229/5/4 236/5/4
f 230/2/4 231/2/4 238/2/4
f 231/1/4 232/1/4 238/1/4
f 232/9/4 224/9/4 239/9/4
f 238/1/4 232/1/4 239/1/4
f 234/4/4 235/4/4 240/4/4
f 235/6/4 236/6/4 241/6/4
f 240/4/4 235/4/4 241/4/4
f 236/5/4 237/5/4 242/5/4
f 241/6/4 236/6/4 242/6/4
f 242/5/4 237/5/4 243/5/4
f 241/4/4 242/4/4 245/4/4
f 242/3/4 243/3/4 246/3/4
f 245/4/4 242/4/4 246/4/4
f 243/5/4 244/5/4 247/5/4
f 246/3/4 243/3/4 247/3/4
f 247/5/4 244/5/4 248/5/4
f 230/2/4 238/2/4 249/2/4
f 238/8/4 239/8/4 250/8/4
f 249/2/4 238/2/4 250/2/4
f 239/9/4 224/9/4 251/9/4
f 250/8/4 239/8/4 251/8/4
f 246/4/4 247/4/4 252/4/4
f 247/1/4 248/1/4 253/1/4
f 252/4/4 247/4/4 253/4/4
f 248/5/4 249/5/4 254/5/4
f 253/1/4 248/1/4 254/1/4
f 249/8/4 250/8/4 255/8/4
f 254/5/4 249/5/4 255/5/4
f 250/1/4 251/1/4 256/1/4
f 255/8/4 250/8/4 256/8/4
f 251/9/4 224/9/4 257/9/4
f 256/1/4 251/1/4 257/1/4
f 257/9/4 224/9/4 258/9/4
f 253/4/4 254/4/4 260/4/4
f 254/1/4 255/1/4 261/1/4
f 260/4/4 254/4/4 261/4/4
f 255/8/4 256/8/4 262/8/4
f 261/1/4 255/1/4 262/1/4
f 256/9/4 257/9/4 263/9/4
f 262/8/4 256/8/4 263/8/4
f 263/9/4 257/9/4 264/9/4
f 259/2/4 260/2/4 266/2/4
f 266/2/4 260/2/4 267/2/4
f 267/2/4 260/2/4 268/2/4
f 260/8/4 261/8/4 269/8/4
f 268/2/4 260/2/4 269/2/4
f 261/8/4 262/8/4 269/8/4
f 269/8/4 262/8/4 270/8/4
f 262/3/4 263/3/4 271/3/4
f 270/8/4 262/8/4 271/8/4
f 263/5/4 264/5/4 272/5/4
f 271/3/4 263/3/4 272/3/4
f 272/5/4 264/5/4 273/5/4
f 265/2/4 266/2/4 274/2/4
f 266/7/4 267/7/4 275/7/4
f 274/2/4 266/2/4 275/2/4
f 267/1/4 268/1/4 276/1/4
f 275/7/4 267/7/4 276/7/4
f 268/8/4 269/8/4 277/8/4
f 276/1/4 268/1/4 277/1/4
f 269/1/4 270/1/4 278/1/4
f 277/8/4 269/8/4 278/8/4
f 270/2/4 271/2/4 279/2/4
f 278/1/4 270/1/4 279/1/4
f 271/4/4 272/4/4 280/4/4
f 279/2/4 271/2/4 280/2/4
f 272/6/4 273/6/4 281/6/4
f 280/4/4 272/4/4 281/4/4
f 281/6/4 273/6/4 282/6/4
f 276/2/4 277/2/4 283/2/4
f 278/2/4 279/2/4 283/2/4
f 275/2/4 276/2/4 283/2/4
f 277/2/4 278/2/4 283/2/4
f 283/2/4 279/2/4 284/2/4
f 287/4/5 286/4/5 285/4/5
f 288/4/5 286/4/5 287/4/5
f 291/4/5 290/4/5 289/4/5
f 292/4/5 290/4/5 291/4/5
f 295/4/5 294/4/5 293/4/5
f 296/4/5 294/4/5 295/4/5
f 301/4/5 298/4/5 297/4/5
f 302/4/5 298/4/5 301/4/5
f 303/2/5 300/2/5 299/2/5
f 304/2/5 300/2/5 303/2/5
f 311/4/5 306/4/5 305/4/5
f 312/4/5 306/4/5 311/4/5
f 313/2/5 308/2/5 307/2/5
f 314/2/5 308/2/5 313/2/5
f 315/2/5 310/2/5 309/2/5
f 316/2/5 310/2/5 315/2/5
f 319/4/5 318/4/5 317/4/5
f 320/4/5 318/4/5 319/4/5
f 323/4/5 322/4/5 321/4/5
f 324/4/5 322/4/5 323/4/5
f 327/4/5 326/4/5 325/4/5
f 328/4/5 326/4/5 327/4/5
f 331/4/5 330/4/5 329/4/5
f 332/4/5 330/4/5 331/4/5
f 336/9/5 334/9/5 333/9/5
f 337/2/5 335/2/5 334/2/5
f 337/9/5 334/9/5 336/9/5
f 338/2/5 335/2/5 337/2/5
f 341/9/5 340/9/5 339/9/5
f 342/9/5 340/9/5 341/9/5
f 343/5/6 344/5/6 345/5/6
f 345/5/6 344/5/6 346/5/6
f 347/5/6 348/5/6 349/5/6
f 349/5/6 348/5/6 350/5/6
f 351/5/6 352/5/6 353/5/6
f 353/5/6 352/5/6 354/5/6
f 355/5/6 356/5/6 357/5/6
f 357/5/6 356/5/6 358/5/6
f 359/5/6 360/5/6 361/5/6
f 361/5/6 360/5/6 362/5/6
f 363/5/6 364/5/6 365/5/6
f 365/5/6 364/5/6 366/5/6
f 367/5/6 368/5/6 369/5/6
f 369/5/6 368/5/6 370/5/6
f 371/5/6 372/5/6 375/5/6
f 375/5/6 372/5/6 376/5/6
f 373/2/6 374/2/6 377/2/6
f 377/2/6 374/2/6 378/2/6
f 379/9/6 380/9/6 385/9/6
f 385/9/6 380/9/6 386/9/6
f 381/9/6 382/9/6 387/9/6
f 382/5/6 383/5/6 388/5/6
f 387/9/6 382/9/6 388/9/6
f 383/6/6 384/6/6 389/6/6
f 388/5/6 383/5/6 389/5/6
f 389/6/6 384/6/6 390/6/6
f 391/9/6 392/9/6 393/9/6
f 393/9/6 392/9/6 394/9/6
